PathFileType	4	(X/Y/Z)	pose2sim_0-881.trc
DataRate	CameraRate	NumFrames	NumMarkers	Units	OrigDataRate	OrigDataStartFrame	OrigNumFrames
50	50	4	22	m	50	0	882
Frame#	Time	Hip			RHip			RKnee			RAnkle			RBigToe			RSmallToe			RHeel			LHip			LKnee			LAnkle			LBigToe			LSmallToe			LHeel			Neck			Head			Nose			RShoulder			RElbow			RWrist			LShoulder			LElbow			LWrist			
		X1	Y1	Z1	X2	Y2	Z2	X3	Y3	Z3	X4	Y4	Z4	X5	Y5	Z5	X6	Y6	Z6	X7	Y7	Z7	X8	Y8	Z8	X9	Y9	Z9	X10	Y10	Z10	X11	Y11	Z11	X12	Y12	Z12	X13	Y13	Z13	X14	Y14	Z14	X15	Y15	Z15	X16	Y16	Z16	X17	Y17	Z17	X18	Y18	Z18	X19	Y19	Z19	X20	Y20	Z20	X21	Y21	Z21	X22	Y22	Z22	
0	0.0	0.13545283596082625	0.9817618049925965	-0.04151510551837781	0.03450937057587589	0.9703871765991108	-0.03736954960783002	0.012662294849501713	0.5184434754507481	-0.07567587151809624	0.00195559705940001	0.09668740994294638	-0.08755978314018009	0.002652110716824936	0.048247226875335086	0.09512825769031741	-0.03956917660908482	0.04171614966993076	0.05041219012056127	0.013543823470478212	0.046167420362062374	-0.11879965161667126	0.23455585774905763	0.9680310132571055	-0.052478888158964544	0.23881816718355406	0.5165280186363467	-0.11451363760992768	0.2454046548359634	0.09563480794105249	-0.11910279462255417	0.2790989084284798	0.042291752980954986	0.07062804337767999	0.31815560799096915	0.036270396944441424	0.012821569138370301	0.23212447833445501	0.0427445517959753	-0.14422071968770245	0.14536152873139513	1.5832100915014282	-0.05063471046385825	0.14941229567624253	1.82899540948859	-0.013196567090931097	0.14958659620943213	1.699537225515539	0.08782195175909675	-0.019779862597067717	1.469305814372317	-0.044463535762050865	-0.07099125618138716	1.184110656016865	-0.044788857885141864	-0.13627801452251434	0.9353072159400864	0.00961066270891571	0.3234848863816643	1.4724732925091308	-0.0904422795766899	0.3560583295422246	1.1859054356403502	-0.09213635557272568	0.40775902219453247	0.9357692073208047	-0.06232811686409888
1	0.02	0.1341380619507579	0.9798418585998263	-0.04213965481946221	0.03120833642454646	0.9648340228429625	-0.03420908555325413	0.011420523327838892	0.5221890935191195	-0.07340883938940213	0.00046486914182794747	0.09083506410562643	-0.09321298448105454	-0.0006530567738531191	0.038390901973626344	0.09662259289032527	-0.044463527813076414	0.039556820061964995	0.05151653960073514	0.01188620707161877	0.04154502884101603	-0.12285821261399713	0.2365163693047465	0.9644204641534029	-0.057976812985289304	0.23860862085210813	0.5191849215202142	-0.11139947335124109	0.24471808308172838	0.09139377821632057	-0.11770928907076578	0.2747945715517504	0.038602903308564196	0.06347036326372364	0.31582179104309815	0.041437526096767395	0.0065795512041001885	0.23148105828895305	0.04437889354556593	-0.14241062659630752	0.14630348351088132	1.5757854904763045	-0.05537414474808426	0.14447566206702755	1.822813314002431	-0.01929080559699823	0.14582397277201473	1.6965778180987545	0.09083304886934816	-0.014787188556231474	1.4693218772036807	-0.04654160475647848	-0.07242209004965638	1.188057122452732	-0.04234991985939918	-0.13204227683922012	0.9412808783563997	0.004553086701738394	0.3140518403159098	1.4698802288502923	-0.08991830117765477	0.35443872353651174	1.1898625930607325	-0.09771515200223875	0.40205496001973184	0.94346118708007	-0.06310549636995802
2	0.04	0.13609246878489845	0.9797342297857149	-0.04814641339678042	0.0321577587111855	0.967398596564155	-0.03747849873971069	0.011309882098444093	0.5222822513677187	-0.067859401407348	0.0008972951368133453	0.09562669591280547	-0.09699514830324993	-0.0018078895389394293	0.040575255302708155	0.09468853590755412	-0.04714316234695141	0.041619636771668946	0.047368175581084616	0.009078538232688492	0.04514908934672569	-0.13327606382906834	0.23591419548332596	0.9615899435786069	-0.05823715570621046	0.23907759739828707	0.5193882365482292	-0.11087561037867288	0.24705992208878044	0.09314612642921576	-0.11908334478484832	0.2749912163111808	0.03774446168192495	0.05934846807305325	0.316384780024824	0.039230794237251516	0.004218581010788442	0.23401012384326977	0.046041592471752636	-0.1445251759981349	0.14570403999050507	1.5754689880859596	-0.05360445685094917	0.14672619604473228	1.8235752112369568	-0.017739540545022203	0.14841515328522473	1.694730364361322	0.09909135694119456	-0.012227029576436347	1.4702839835352208	-0.045235196915369126	-0.07157285889375133	1.1877531376778956	-0.04436752500738243	-0.13406987159537087	0.9414316453706064	0.003689879973962756	0.3146631564787108	1.4682647954928103	-0.09165491418553663	0.35530185574663525	1.187960010979632	-0.09639641722908031	0.40577992727386714	0.9429840351707083	-0.06142214297531716
3	0.06	0.13372355837370375	0.9784388168557244	-0.04862961419401017	0.02991468159039727	0.9662925205022966	-0.03787175451234475	0.01192911123042332	0.5210375819331384	-0.06556711968928983	0.0001485111410251522	0.09460957064698178	-0.09670269350413833	-0.0025199869950160705	0.039688241338845874	0.09153162250619942	-0.046274282385952846	0.040640284111238614	0.046193449312080456	0.007940055913081721	0.04751838638398235	-0.1324714438411824	0.236786147874978	0.9614699013152602	-0.05328466456184551	0.24139858703437642	0.5180522111882556	-0.10900067207377885	0.24796969275932437	0.09072146391367214	-0.11885464054535072	0.27750085242245254	0.035373551024531213	0.06158285327448177	0.3170128279936779	0.03957033903414922	0.004593457437369298	0.23186466601418443	0.04365449966425674	-0.14030064748529628	0.14514051437604897	1.5752110630704457	-0.05182163722224513	0.14449973713278194	1.8243963639086498	-0.019310800668657705	0.14831234896436635	1.695770711439058	0.0959699781655139	-0.01289740601897435	1.4700961820392904	-0.044096818547617204	-0.07248073921998555	1.1877384926202135	-0.048788167348006325	-0.13363150621340517	0.9413144393276514	6.125461018638104e-05	0.315559598641434	1.4692731408073776	-0.08654739952682852	0.3562054385182281	1.189233485669681	-0.09187530348058512	0.40498263516461896	0.9431646664664384	-0.06078766671260557
